<svg width="160" height="160" viewBox="0 0 160 160" fill="none" xmlns="http://www.w3.org/2000/svg">
<rect width="160" height="160" fill="white"/>
<path d="M6 83.4986C6 124.643 42.273 157.997 87.018 157.997C96.754 158.103 120.26 155.164 136.394 142.568C138.132 141.076 145.701 131.907 152.099 114.513C160.096 92.771 150.998 67.0322 131.7 57.9197C112.401 48.8072 75.891 57.9197 64.4744 36.8171C58.6791 22.2691 76.2967 13.5296 87.018 9C42.273 9 6 42.3542 6 83.4986Z" fill="#4F6F9F"/>
<mask id="mask0_328_14881" style="mask-type:alpha" maskUnits="userSpaceOnUse" x="6" y="9" width="149" height="149">
<path d="M6 83.4986C6 124.643 42.273 157.997 87.018 157.997C96.754 158.103 120.26 155.164 136.394 142.568C138.132 141.076 145.701 131.907 152.099 114.513C160.096 92.771 150.998 67.0322 131.7 57.9197C112.401 48.8072 75.891 57.9197 64.4744 36.8171C59.4396 24.1782 72.076 15.9234 82.5094 11.0044C83.4956 10.5394 83.1689 9.07591 82.0802 9.13609C39.6346 11.4826 6 43.8788 6 83.4986Z" fill="#174994"/>
</mask>
<g mask="url(#mask0_328_14881)">
<circle cx="45.5" cy="42.5" r="49.5" fill="#6B8CBD" fill-opacity="0.5"/>
<circle cx="126.5" cy="159.5" r="49.5" fill="#2D65B9"/>
<path d="M123 175.496C119.8 181.896 119 185.163 119 185.996C115.833 181.496 109.5 171.296 109.5 166.496C109.5 161.92 104.349 158.798 101.414 157.65C101.248 157.604 101.11 157.551 101 157.496C101.132 157.543 101.27 157.594 101.414 157.65C102.75 158.024 105.873 157.987 110.5 155.496C117 151.996 99.5 152.996 96 148.996C93.2 145.796 91.8333 135.996 91.5 131.496C94.1667 132.663 100.9 134.496 106.5 132.496C112.1 130.496 102.167 126.996 96.5 125.496C94 124.996 89 122.496 89 116.496C89 108.996 95 91.996 101 84.996C107 77.996 102 90.996 105 99.496C107.4 106.296 111.667 106.663 113.5 105.996C112.333 109.829 110.7 118.596 113.5 122.996C116.3 127.396 117 116.163 117 109.996C117.667 110.163 120 111.896 124 117.496C128 123.096 129.333 130.496 129.5 133.496C128.5 133.996 125.6 135.796 122 138.996C117.5 142.996 121 148.496 124 148.496C127 148.496 128.5 142.996 130.5 146.996C132.5 150.996 127 167.496 123 175.496Z" fill="#ACB9E0"/>
<path d="M112 129.996C115.42 138.546 118 168.829 118 185.496C118.5 184.496 119.5 180.332 119.5 171.496C119.5 161.496 119.5 143.496 113 127.496C109.603 119.133 105.167 114.496 100.5 109.996C102 112.163 109 122.496 112 129.996Z" fill="#B4C0D7"/>
<path d="M131.559 164.537C126.419 169.515 124.582 172.332 124.306 173.119C122.809 167.824 120.212 156.102 121.802 151.573C123.318 147.255 119.492 142.603 117.103 140.548C116.962 140.449 116.849 140.354 116.763 140.265C116.872 140.353 116.986 140.447 117.103 140.548C118.24 141.344 121.198 142.343 126.389 141.525C133.682 140.376 116.839 135.522 114.861 130.589C113.279 126.642 115.236 116.942 116.412 112.586C118.542 114.57 124.288 118.531 130.234 118.498C136.18 118.466 127.967 111.874 123.117 108.581C120.924 107.281 117.035 103.266 119.022 97.6049C121.506 90.5283 132.799 76.4756 140.779 71.8584C148.759 67.2411 139.735 77.8509 139.75 86.8647C139.762 94.0758 143.666 95.8352 145.617 95.8134C143.246 99.0439 138.801 106.775 139.986 111.854C141.17 116.933 145.552 106.566 147.594 100.747C148.168 101.125 149.796 103.533 151.715 110.142C153.634 116.751 152.441 124.175 151.604 127.061C150.495 127.201 147.163 127.939 142.706 129.766C137.135 132.05 138.615 138.398 141.446 139.392C144.277 140.386 147.514 135.693 148.076 140.13C148.638 144.567 137.983 158.313 131.559 164.537Z" fill="#D2D9EF"/>
<path d="M136.252 117.961C136.646 127.162 129.049 156.59 123.528 172.316C124.331 171.538 126.654 167.94 129.581 159.603C132.894 150.167 138.856 133.184 138.023 115.934C137.588 106.918 134.938 101.073 132.026 95.2812C132.723 97.8225 135.905 109.891 136.252 117.961Z" fill="#B4C0D7"/>
<path d="M61.4212 185.832C58.8278 192.501 58.3338 195.828 58.411 196.658C54.8411 192.47 47.5901 182.901 47.1455 178.121C46.7217 173.565 41.304 170.933 38.2748 170.063C38.1057 170.032 37.9633 169.992 37.8485 169.947C37.9843 169.982 38.1267 170.02 38.2748 170.063C39.6403 170.312 42.7461 169.985 47.1224 167.076C53.2703 162.989 35.9381 165.606 32.0827 161.947C28.9983 159.02 26.7298 149.389 25.9811 144.939C28.7444 145.854 35.6186 147.056 41.0092 144.545C46.3999 142.035 36.1851 139.47 30.4039 138.502C27.8683 138.236 22.6582 136.209 22.1025 130.235C21.4078 122.767 25.8074 105.285 31.1333 97.7591C36.4591 90.2335 32.6847 103.641 36.4591 111.826C39.4787 118.375 43.761 118.345 45.5248 117.511C44.7182 121.436 43.9039 130.316 47.0994 134.438C50.2949 138.56 49.9514 127.31 49.3802 121.17C50.0595 121.274 52.5433 122.784 57.0448 127.989C61.5463 133.195 63.5593 140.439 64.0031 143.411C63.0537 144.001 60.3329 146.062 57.0448 149.582C52.9346 153.982 56.929 159.134 59.9161 158.856C62.9032 158.578 63.8873 152.963 66.2492 156.76C68.6111 160.558 64.6631 177.496 61.4212 185.832Z" fill="#D2D9EF"/>
<path d="M46.254 141.547C50.4513 149.743 55.8251 179.657 57.3688 196.252C57.774 195.21 58.3841 190.972 57.5656 182.174C56.6394 172.217 54.9722 154.294 47.0182 138.965C42.8608 130.953 38.0144 126.746 32.951 122.698C34.6452 124.716 42.5722 134.357 46.254 141.547Z" fill="#B4C0D7"/>
</g>
<rect x="85" y="15" width="62" height="32" rx="4.77064" fill="#CEDDF3"/>
<path d="M132.5 54C132.9 50 129.333 47.3333 127.5 46.5L140 43.5C140.5 44 141.4 46.3 141 51.5C140.6 56.7 132.833 60.3333 129 61.5C130 60.6667 132.1 58 132.5 54Z" fill="#CEDDF3"/>
<path d="M97.9793 18.156L98.8156 20.0634C98.8471 20.1352 98.8972 20.1972 98.9608 20.243C99.0244 20.2888 99.0991 20.3167 99.1772 20.3237L101.214 20.5064C101.445 20.5399 101.537 20.8226 101.37 20.9854L99.8351 22.2746C99.7109 22.379 99.6543 22.543 99.6885 22.7014L100.135 24.7896C100.174 25.0189 99.9333 25.1941 99.727 25.0854L97.9489 24.0441C97.8818 24.0047 97.8055 23.9839 97.7277 23.9839C97.6499 23.9839 97.5736 24.0047 97.5065 24.0441L95.7284 25.0847C95.5227 25.1928 95.2816 25.0183 95.3208 24.789L95.7669 22.7008C95.8004 22.5424 95.7445 22.3784 95.6202 22.274L94.085 20.986C93.9185 20.8239 94.0105 20.5406 94.2403 20.507L96.2776 20.3244C96.3556 20.3173 96.4303 20.2894 96.494 20.2436C96.5576 20.1978 96.6077 20.1358 96.6392 20.064L97.4754 18.1566C97.5792 17.9479 97.8762 17.9479 97.9793 18.156Z" fill="#FDC435"/>
<path d="M106.22 18.156L107.056 20.0634C107.088 20.1352 107.138 20.1972 107.202 20.243C107.265 20.2888 107.34 20.3167 107.418 20.3237L109.455 20.5064C109.686 20.5399 109.778 20.8226 109.61 20.9854L108.076 22.2746C107.952 22.379 107.895 22.543 107.929 22.7014L108.375 24.7896C108.414 25.0189 108.174 25.1941 107.968 25.0854L106.19 24.0441C106.123 24.0047 106.046 23.9839 105.968 23.9839C105.891 23.9839 105.814 24.0047 105.747 24.0441L103.969 25.0847C103.763 25.1928 103.522 25.0183 103.562 24.789L104.008 22.7008C104.041 22.5424 103.985 22.3784 103.861 22.274L102.326 20.986C102.159 20.8239 102.251 20.5406 102.481 20.507L104.518 20.3244C104.596 20.3173 104.671 20.2894 104.735 20.2436C104.798 20.1978 104.848 20.1358 104.88 20.064L105.716 18.1566C105.82 17.9479 106.117 17.9479 106.22 18.156Z" fill="#FDC435"/>
<path d="M114.46 18.156L115.296 20.0634C115.328 20.1352 115.378 20.1972 115.441 20.243C115.505 20.2888 115.58 20.3167 115.658 20.3237L117.695 20.5064C117.925 20.5399 118.017 20.8226 117.85 20.9854L116.316 22.2746C116.191 22.379 116.135 22.543 116.169 22.7014L116.615 24.7896C116.654 25.0189 116.414 25.1941 116.207 25.0854L114.429 24.0441C114.362 24.0047 114.286 23.9839 114.208 23.9839C114.13 23.9839 114.054 24.0047 113.987 24.0441L112.209 25.0847C112.003 25.1928 111.762 25.0183 111.801 24.789L112.247 22.7008C112.281 22.5424 112.225 22.3784 112.101 22.274L110.565 20.986C110.399 20.8239 110.491 20.5406 110.721 20.507L112.758 20.3244C112.836 20.3173 112.911 20.2894 112.974 20.2436C113.038 20.1978 113.088 20.1358 113.12 20.064L113.956 18.1566C114.06 17.9479 114.357 17.9479 114.46 18.156Z" fill="#FDC435"/>
<path d="M122.701 18.156L123.537 20.0634C123.569 20.1352 123.619 20.1972 123.682 20.243C123.746 20.2888 123.821 20.3167 123.899 20.3237L125.936 20.5064C126.167 20.5399 126.259 20.8226 126.091 20.9854L124.557 22.2746C124.433 22.379 124.376 22.543 124.41 22.7014L124.856 24.7896C124.895 25.0189 124.655 25.1941 124.449 25.0854L122.671 24.0441C122.603 24.0047 122.527 23.9839 122.449 23.9839C122.372 23.9839 122.295 24.0047 122.228 24.0441L120.45 25.0847C120.244 25.1928 120.003 25.0183 120.042 24.789L120.489 22.7008C120.522 22.5424 120.466 22.3784 120.342 22.274L118.807 20.986C118.64 20.8239 118.732 20.5406 118.962 20.507L120.999 20.3244C121.077 20.3173 121.152 20.2894 121.216 20.2436C121.279 20.1978 121.329 20.1358 121.361 20.064L122.197 18.1566C122.301 17.9479 122.598 17.9479 122.701 18.156Z" fill="#FDC435"/>
<path d="M130.941 18.156L131.777 20.0634C131.809 20.1352 131.859 20.1972 131.923 20.243C131.986 20.2888 132.061 20.3167 132.139 20.3237L134.176 20.5064C134.407 20.5399 134.499 20.8226 134.332 20.9854L132.797 22.2746C132.673 22.379 132.616 22.543 132.65 22.7014L133.097 24.7896C133.136 25.0189 132.895 25.1941 132.689 25.0854L130.911 24.0441C130.844 24.0047 130.767 23.9839 130.69 23.9839C130.612 23.9839 130.535 24.0047 130.468 24.0441L128.69 25.0847C128.485 25.1928 128.244 25.0183 128.283 24.789L128.729 22.7008C128.762 22.5424 128.706 22.3784 128.582 22.274L127.047 20.986C126.88 20.8239 126.972 20.5406 127.202 20.507L129.239 20.3244C129.318 20.3173 129.392 20.2894 129.456 20.2436C129.519 20.1978 129.57 20.1358 129.601 20.064L130.437 18.1566C130.541 17.9479 130.838 17.9479 130.941 18.156Z" fill="#FDC435"/>
<rect x="95.75" y="28.0682" width="45.4773" height="2.09091" rx="1.04545" fill="white"/>
<rect x="95.75" y="34" width="45.4773" height="2.09091" rx="1.04545" fill="white"/>
<rect x="105" y="41" width="31.3636" height="2.09091" rx="1.04545" fill="white"/>
<path d="M135.026 145.164C127.823 149.924 118.585 131.408 114.866 121.554L129.092 114.181C134.071 122.525 142.229 140.403 135.026 145.164Z" fill="#F29884"/>
<path d="M118.716 88.6968C112.7 83.7633 107.241 88.359 105.263 91.2735C101.691 94.6906 107.025 124.746 109.142 124.764C110.835 124.778 125.854 118.605 133.151 115.516C130.846 108.632 124.733 93.6303 118.716 88.6968Z" fill="#58677C"/>
<path d="M93.9994 158C86.9832 159.754 53.9994 158.393 53.9994 150.5C53.9994 147.637 64.0432 136.043 64.0432 122.858C64.0432 106.957 63.9994 88.0199 63.9994 79.0702L73.9994 80L83.4994 82C88.0307 81.5615 96.9678 82.6343 102.23 82.6343C107.492 82.6343 112.999 87 118.499 89L113.499 153C107.499 158 99.6124 156.597 93.9994 158Z" fill="#6E7E96"/>
<path d="M132.98 65.9657L131.497 65.5623C131.497 65.5623 131.05 65.2306 129.878 65.4617C128.706 65.6939 122.091 66.7306 122.091 66.7306C122.091 66.7306 120.548 66.9474 120.182 69.8058C119.817 72.6635 116.817 92.3514 116.817 92.3514C116.817 92.3514 117.032 94.492 118.945 94.1852C120.859 93.8802 132.98 65.9657 132.98 65.9657Z" fill="#1A406B"/>
<path d="M120.58 72.5889L120.45 73.4676L120.416 73.4748C120.385 73.48 120.355 73.5139 120.347 73.546L120.082 75.3456C120.077 75.3787 120.101 75.4008 120.133 75.3958L120.166 75.3882L120.09 75.8985L120.081 75.8988C120.048 75.9072 120.018 75.9379 120.012 75.9707L119.745 77.7693C119.741 77.8043 119.762 77.8266 119.796 77.8205L119.804 77.8183L117.707 92.0017C117.575 92.8937 117.592 93.4252 118.043 93.8677C118.258 94.0747 118.68 94.2881 119.5 94.1376L127.9 92.5486C128.722 92.3937 129.233 92.0031 129.522 91.7039C130.136 91.0577 130.315 90.4892 130.446 89.5973L132.644 74.7554L132.67 74.752C132.716 74.7442 132.759 74.6978 132.766 74.6515L133.188 71.7959C133.195 71.7471 133.163 71.7157 133.117 71.7248L133.091 71.7301L133.631 68.0865C133.762 67.1983 133.744 66.663 133.293 66.2208C133.08 66.0141 132.657 65.8011 131.836 65.9573L123.437 67.5411C122.616 67.6951 122.103 68.0863 121.816 68.3892C121.201 69.032 121.023 69.603 120.889 70.4912L120.731 71.5739L120.698 71.5814C120.666 71.5863 120.635 71.6192 120.629 71.6539L120.497 72.5455C120.492 72.5797 120.515 72.6016 120.549 72.5956L120.58 72.5889ZM121.249 70.4243C121.374 69.6048 121.513 69.1486 122.027 68.6097C122.262 68.3647 122.683 68.0499 123.381 67.9161L131.78 66.3313C132.477 66.2003 132.83 66.3737 133.002 66.5381C133.38 66.9071 133.391 67.3374 133.271 68.1545L130.087 89.6651C129.967 90.4846 129.826 90.9381 129.31 91.4813C129.076 91.7243 128.656 92.0413 127.959 92.1735L119.557 93.7573C118.858 93.89 118.506 93.7193 118.336 93.5521C117.956 93.1815 117.945 92.7539 118.068 91.9334L121.249 70.4243Z" fill="#1A406B"/>
<path d="M121.252 70.467L121.258 70.4249C121.38 69.6041 121.522 69.1461 122.038 68.6033C122.273 68.3597 122.693 68.0439 123.393 67.9109L131.792 66.3272C132.491 66.1946 132.841 66.3655 133.011 66.5342C133.392 66.9076 133.404 67.3345 133.283 68.1562L133.277 68.1972L133.252 68.3662L130.098 89.6657C129.979 90.4864 129.837 90.9442 129.318 91.4903C129.088 91.7315 128.664 92.0496 127.965 92.1798L119.566 93.7646C118.867 93.8953 118.516 93.7278 118.345 93.5607C117.963 93.1864 117.954 92.7576 118.073 91.9361L121.226 70.635L121.252 70.467Z" fill="#092034"/>
<path d="M123.743 69.1741C124.357 69.0578 124.772 69.4676 124.669 70.0874L124.277 72.4681C124.173 73.0861 123.593 73.6818 122.979 73.7968C122.367 73.9103 121.952 73.5004 122.051 72.8836L122.448 70.5027C122.548 69.8827 123.129 69.2873 123.743 69.1741Z" fill="url(#paint0_linear_328_14881)"/>
<path d="M122.917 71.5733C122.877 71.8093 123.037 71.9651 123.273 71.9232C123.51 71.8781 123.735 71.6485 123.774 71.4108C123.812 71.1731 123.651 71.0138 123.415 71.0594C123.181 71.1028 122.955 71.3325 122.917 71.5733Z" fill="#939292"/>
<path opacity="0.5" d="M122.661 72.8539C122.616 73.1214 122.797 73.2988 123.058 73.248C123.324 73.1987 123.575 72.9413 123.618 72.675C123.661 72.4076 123.482 72.2334 123.219 72.2809C122.955 72.3329 122.707 72.5877 122.661 72.8539Z" fill="#D9D8DA"/>
<path opacity="0.5" d="M123.088 70.2992C123.044 70.5676 123.224 70.7421 123.485 70.6939C123.75 70.6442 124 70.3884 124.044 70.1219C124.089 69.8539 123.91 69.6784 123.646 69.726C123.381 69.7752 123.132 70.0345 123.088 70.2992Z" fill="#D9D8DA"/>
<path d="M133.349 99.211L140.316 133.75C141.08 143.472 133.036 149.777 127.355 145.234C125.49 143.745 123.501 139.919 123.243 135.021C123.51 120.696 125.256 108.496 125.347 103.605L125.465 97.3092C124.506 95.1785 121.052 94.5701 119.417 91.8362C118.018 89.4954 115.87 87.107 117.053 84.7424C117.184 84.611 117.526 84.3483 117.841 84.3483C118.235 84.3483 115.87 83.5601 117.053 81.9837C117.97 80.7611 118.714 81.1687 118.998 81.5541C118.47 80.7945 117.615 79.1654 118.235 78.4368C118.866 77.6964 120.337 78.391 120.994 78.8309L125.974 82.5659C123.783 78.536 118.899 73.5436 120.185 72.4882C120.663 72.0959 122.428 72.805 124.147 74.4958C127.821 78.1095 130.685 83.2246 130.846 83.166C131.682 82.8614 130.862 82.2596 130.846 81.9837L131.301 82.1879C132.507 83.6567 133.189 89.3844 133.189 89.3844C133.382 91.884 133.381 96.1368 133.349 99.211Z" fill="#F2AD96"/>
<path d="M72.4996 105L63.025 109.62V131.5L72.4996 105Z" fill="#58677C"/>
<path d="M59.9703 78.5611C63.7214 78.9439 72.3119 79.5119 73.9993 79.9999C74.1491 83.1738 72.4163 89.0194 72.1101 92.0204C71.7272 95.7715 72.1101 105.5 72.1101 105.5C72.1101 105.5 58.0878 114.212 53.3509 114.202C48.6141 114.192 43.7516 99.8915 42.4884 98.3413C41.4779 97.101 44.3781 91.4011 44.4452 89.1969L48.541 81.5607C51.5617 79.8159 56.2191 78.1782 59.9703 78.5611Z" fill="#6E7E96"/>
<path d="M53.8601 112.165C57.9334 112.165 63.0249 100.455 64.5524 95.8724C64.3827 93.8358 64.5524 89.6608 62.5158 89.2534C60.4791 88.8461 50.8052 98.9274 46.2228 104.019C47.7502 105.886 49.7869 112.165 53.8601 112.165Z" fill="#58677C"/>
<path d="M80.9562 78.8306C83.7842 75.0599 83.9911 69.6558 82.8217 66.2939H101.239C101.239 67.4633 100.668 70.8427 100.668 74C100.668 77.1573 100.083 81.5738 100.668 83.4741C100.522 84.3511 100.047 87.6576 94.0834 89.7625C88.3544 91.7845 78.6988 82.6527 77.9474 81.9306C77.9098 81.9147 77.9008 81.8855 77.9008 81.8855C77.9008 81.8855 77.9166 81.901 77.9474 81.9306C78.0965 81.9935 78.6944 81.8463 80.9562 78.8306Z" fill="#F29884"/>
<path d="M102.365 75.102C113.983 72.2078 111.826 51.4287 109.37 41.8854C108.764 41.3832 106.698 41.0255 102.691 39.7358C98.6836 38.4461 89.8289 38.6675 85.9025 38.9393C85.5922 44.6746 84.1906 55.7094 81.0661 53.9667C77.1605 51.7884 73.7012 52.5177 72.5065 57.6612C71.5507 61.776 77.4244 63.8506 80.4808 64.3736C82.9341 69.1556 90.7456 77.9961 102.365 75.102Z" fill="#F2AD96"/>
<path d="M103.005 66.3049C103.005 66.3049 99.3295 65.1895 97.4184 64.5253C95.662 63.9148 93.4102 63.4536 90.8707 62.6697C88.4511 61.9227 95.7417 75.9057 103.005 66.3049Z" fill="white"/>
<path d="M76.9207 55.3967C80.1255 56.8888 80.486 60.7657 78.8594 59.7437C77.2328 58.7217 76.3978 58.4531 76.3978 58.4531" stroke="#ED847B" stroke-width="0.877029" stroke-linecap="round"/>
<path d="M101.773 52.3701C101.832 55.2567 101.866 61.0585 101.533 61.1733C101.116 61.3167 100.202 61.855 99.0209 60.92" stroke="#ED847B" stroke-width="0.832685"/>
<path d="M72.8141 40.4257C73.7814 37.4203 79.9262 33.177 81.5512 33.8535C82.5907 31.5777 81.1903 25.814 89.5159 26.2823C99.9228 26.8676 105.378 31.3874 107.883 32.1934C109.886 32.8383 110.458 30.8724 109.658 29.5401C111.566 30.7684 114.046 32.7951 114.307 36.5644C114.633 41.2761 108.684 42.5859 100.782 42.8066C94.4597 42.9832 88.785 40.4812 86.7378 39.2081L84.0173 57.6805C82.7203 57.4166 81.4877 51.5273 75.3705 53.0576C72.3927 53.8025 71.605 44.1826 72.8141 40.4257Z" fill="#121536"/>
<path d="M103.503 53.0624C103.367 54.07 104.664 53.0499 105.42 53.152C106.175 53.254 106.772 54.9709 106.909 53.9634C107.045 52.9559 106.325 52.1436 105.57 52.0416C104.814 51.9395 103.639 52.0549 103.503 53.0624Z" fill="#121536"/>
<path d="M96.7848 46.1965C96.4203 45.597 92.7951 45.543 90.9216 46.682C90.9216 46.682 95.0582 46.7331 95.8885 47.2547C96.7188 47.7763 97.1493 46.7961 96.7848 46.1965Z" fill="#121536"/>
<path d="M103.37 48.3821C103.668 47.7469 107.266 47.3037 109.251 48.2348C109.251 48.2348 105.144 48.73 104.375 49.3378C103.605 49.9456 103.072 49.0173 103.37 48.3821Z" fill="#121536"/>
<ellipse cx="93.6239" cy="52.1396" rx="1.57988" ry="2.10651" transform="rotate(-1.21813 93.6239 52.1396)" fill="#121536"/>
<path d="M58.1217 82.7959C52.4847 80.4303 38.4786 84.9883 32.1801 87.5631C28.601 90.972 22.4731 98.4065 26.5946 100.873C31.7465 103.956 56.067 106.166 61.4987 102C66.9303 97.8338 65.168 85.753 58.1217 82.7959Z" fill="#F2AD96"/>
<path d="M37.4964 85.4999C37.6426 86.0404 39.2621 86.5311 39.4921 87.4998C39.7548 88.6065 40.0553 90.4733 39.9921 92.4998C39.9373 94.2584 38.0965 102.25 37.9979 103.5L40.4988 104C40.4988 104 43.0318 103.704 42.9966 93.4999C42.9887 91.2235 40.9966 84.9999 40.9966 84.9999C40.9966 84.9999 37.3501 84.9595 37.4964 85.4999Z" fill="#2F3846"/>
<path d="M38.5861 83.1231C36.9921 80.7188 33.7777 78.213 32.3697 77.2606L22.8185 81.929C20.6365 82.821 15.7308 85.8959 13.5636 91.0601C10.8546 97.5154 17.1617 97.993 16.684 104.3C16.2064 110.607 19.3599 110.846 25.667 111.324C31.974 111.801 37.3014 104.276 38.0754 102.431C38.8494 100.587 35.9347 97.1946 36.7087 95.3503C37.4827 93.5059 40.5787 86.1285 38.5861 83.1231Z" fill="#F2AD96"/>
<path d="M32.3106 85.1551L18.7743 83.8128C17.852 83.4258 15.6979 83.3895 14.4595 86.3404C13.2211 89.2914 14.24 92.0328 14.9043 93.0346C14.4679 93.213 13.6248 94.0161 13.7433 95.8012C13.8618 97.5863 15.7358 98.8065 16.658 99.1935L15.497 101.96C15.1874 102.698 16.9544 103.656 17.8765 104.043C17.7475 104.351 17.9038 106 17.5942 106.738C17.2072 107.66 18.3225 111.461 24.3983 111.763C30.2616 112.054 33.7924 107.469 34.5664 105.624C35.1856 104.149 33.5158 103.737 32.0776 104.58C32.643 104.094 34.2077 103.795 34.4792 102.027C34.8629 99.5275 32.2743 99.7713 30.2327 99.4673C30.9765 99.4179 32.1227 98.5251 33.0515 96.3119C33.9803 94.0987 32.2662 93.4517 30.2928 92.985C31.344 93.0647 31.7852 92.0929 33.1422 90.927C34.4991 89.7611 33.1532 86.5933 32.3106 85.1551Z" fill="#F29884"/>
<path d="M30.7053 85.8113L17.169 84.469C16.2467 84.0819 14.0925 84.0456 12.8541 86.9966C11.6157 89.9475 12.6347 92.6889 13.299 93.6908C12.8626 93.8691 12.0194 94.6722 12.138 96.4573C12.2565 98.2424 14.1305 99.4626 15.0527 99.8496L13.8917 102.616C13.5821 103.354 15.349 104.312 16.2712 104.699C16.1422 105.007 16.2985 106.656 15.9889 107.394C15.6019 108.316 15.5943 111.646 21.6701 111.948C27.5334 112.239 32.1871 108.125 32.9611 106.28C33.5803 104.805 31.9104 104.393 30.4723 105.236C31.0376 104.75 32.6023 104.451 32.8738 102.683C33.2576 100.184 30.0954 100.187 28.0538 99.8828C28.7976 99.8334 30.5174 99.1813 31.4462 96.968C32.375 94.7548 28.6605 93.2683 26.6871 92.8017C27.7383 92.8813 30.1799 92.749 31.5368 91.5832C32.8938 90.4173 31.5478 87.2494 30.7053 85.8113Z" fill="#F2AD96"/>
<path d="M13.5572 93.246L26.437 92.6656" stroke="#F29884" stroke-width="1.12215" stroke-linecap="round"/>
<path d="M15.8547 98.8657L28.169 98.0479" stroke="#F29884" stroke-width="1.12215" stroke-linecap="round"/>
<path d="M16.874 105.944L29.1883 105.127" stroke="#F29884" stroke-width="1.12215" stroke-linecap="round"/>
<path d="M40.9961 80.9864C42.162 82.3433 40.3895 87.6008 39.3575 90.06C36.9781 87.9768 31.8503 83.6558 30.3745 83.0364C28.5298 82.2622 26.6283 73.8722 27.4023 72.0278C28.1763 70.1835 30.2019 60.1877 35.1998 61.2005C40.1977 62.2133 36.5665 68.2816 35.7925 70.1259C35.0185 71.9703 39.5388 79.2902 40.9961 80.9864Z" fill="#F2AD96"/>
<g clip-path="url(#clip0_328_14881)">
<path d="M38.7207 40.5022L40.1004 45.3882C40.1524 45.572 40.2527 45.7386 40.3909 45.8705C40.5291 46.0024 40.7002 46.0947 40.8863 46.138L45.7442 47.2621C46.2895 47.4204 46.4168 48.1338 45.9586 48.4708L41.8209 51.0692C41.4859 51.2796 41.2944 51.6567 41.3237 52.0507L41.7008 57.2424C41.7184 57.8091 41.0791 58.1516 40.6175 57.8199L36.673 54.7094C36.5243 54.5918 36.3469 54.5161 36.1591 54.49C35.9713 54.4639 35.78 54.4885 35.6049 54.5611L30.9624 56.4777C30.4296 56.6698 29.906 56.1674 30.0774 55.627L31.8547 50.7344C31.9888 50.3631 31.9088 49.9483 31.6437 49.6546L28.3686 46.0299C28.0209 45.5825 28.3379 44.9293 28.9042 44.9253L33.8846 45.1673C34.0755 45.1764 34.2652 45.1341 34.4342 45.0449C34.6031 44.9556 34.745 44.8227 34.845 44.66L37.5038 40.3347C37.8243 39.8655 38.5414 39.965 38.7207 40.5022Z" fill="#FDC435"/>
<path d="M37.8957 45.3635L38.0249 41.9226C38.0376 41.7317 38.0436 41.4022 38.3467 41.4443C38.5867 41.4776 38.6479 41.9953 38.6479 41.9953L39.2957 44.8621C39.5388 45.9525 39.3304 46.286 38.9277 46.4442C38.4653 46.6246 37.8583 46.3492 37.8957 45.3635Z" fill="#FFDB7E"/>
<path d="M41.4669 50.7127L44.7292 48.8246C44.8916 48.7233 45.181 48.5662 45.0016 48.3165C44.8592 48.1194 44.3744 48.3074 44.3744 48.3074L41.6588 48.9564C40.8538 49.1153 40.2891 49.4375 40.1754 49.9263C40.0252 50.5783 40.5472 51.1691 41.4669 50.7127Z" fill="#E5AF26"/>
</g>
<g clip-path="url(#clip1_328_14881)">
<path d="M55.702 48.2804L56.1176 52.4607C56.1333 52.618 56.1908 52.7682 56.2843 52.8957C56.3778 53.0231 56.5038 53.1232 56.6491 53.1854L60.4435 54.8054C60.8648 55.0134 60.865 55.613 60.443 55.8212L56.6956 57.338C56.3921 57.4608 56.1815 57.7403 56.1483 58.0655L55.7027 62.3495C55.635 62.8137 55.0645 63 54.7366 62.6629L51.9742 59.5571C51.8701 59.4398 51.7366 59.3523 51.5874 59.3039C51.4382 59.2554 51.2788 59.2477 51.1256 59.2814L47.0658 60.1698C46.6039 60.249 46.2503 59.7638 46.4682 59.3484L48.6253 55.6204C48.7884 55.3374 48.7834 54.9879 48.6101 54.7102L46.4675 51.2827C46.2491 50.8678 46.6021 50.3816 47.064 50.4605L51.0861 51.3796C51.2402 51.4147 51.4009 51.4078 51.5515 51.3596C51.702 51.3114 51.8369 51.2236 51.942 51.1056L54.7349 47.9676C55.0641 47.6317 55.6338 47.8168 55.702 48.2804Z" fill="#FDC435"/>
<path d="M54.3251 52.1208L54.9292 49.3364C54.9672 49.1828 55.0199 48.9152 55.2606 48.9934C55.4513 49.0554 55.4261 49.486 55.4261 49.486L55.5382 51.9153C55.5782 52.8388 55.3601 53.0803 55.0091 53.1507C54.6063 53.2307 54.1517 52.9183 54.3251 52.1208Z" fill="#FFDB7E"/>
<path d="M56.459 56.9962L59.3903 55.931C59.5373 55.872 59.7958 55.786 59.6859 55.5566C59.5985 55.3754 59.1763 55.4583 59.1763 55.4583L56.87 55.5933C56.1912 55.606 55.6845 55.7866 55.521 56.1683C55.3041 56.6777 55.6437 57.2347 56.459 56.9962Z" fill="#E5AF26"/>
</g>
<g clip-path="url(#clip2_328_14881)">
<path d="M68.5095 58.5596L68.8468 61.9517C68.8595 62.0794 68.9062 62.2013 68.9821 62.3047C69.0579 62.4081 69.1601 62.4893 69.2781 62.5398L72.3571 63.8544C72.6989 64.0232 72.6991 64.5097 72.3566 64.6786L69.3158 65.9095C69.0696 66.0091 68.8986 66.2359 68.8717 66.4998L68.5102 69.976C68.4552 70.3527 67.9923 70.5039 67.7261 70.2303L65.4846 67.7101C65.4002 67.6149 65.2918 67.544 65.1707 67.5047C65.0497 67.4653 64.9203 67.4591 64.796 67.4864L61.5017 68.2073C61.1269 68.2716 60.8399 67.8779 61.0168 67.5408L62.7672 64.5157C62.8995 64.286 62.8954 64.0024 62.7548 63.7771L61.0162 60.9958C60.839 60.6592 61.1254 60.2646 61.5002 60.3287L64.7639 61.0745C64.889 61.103 65.0194 61.0973 65.1416 61.0582C65.2638 61.0191 65.3732 60.9479 65.4585 60.8521L67.7248 58.3058C67.9919 58.0333 68.4542 58.1834 68.5095 58.5596Z" fill="#FDC435"/>
<path d="M67.3927 61.676L67.8828 59.4166C67.9137 59.2919 67.9564 59.0748 68.1518 59.1383C68.3066 59.1885 68.2861 59.5379 68.2861 59.5379L68.3771 61.5092C68.4095 62.2586 68.2325 62.4545 67.9477 62.5117C67.6208 62.5766 67.252 62.3231 67.3927 61.676Z" fill="#FFDB7E"/>
<path d="M69.1238 65.6321L71.5024 64.7678C71.6216 64.7199 71.8314 64.6501 71.7422 64.464C71.6713 64.3169 71.3287 64.3842 71.3287 64.3842L69.4572 64.4937C68.9064 64.504 68.4952 64.6506 68.3626 64.9603C68.1866 65.3736 68.4621 65.8256 69.1238 65.6321Z" fill="#E5AF26"/>
</g>
<g clip-path="url(#clip3_328_14881)">
<path d="M8.43531 57.8209L11.1253 59.9148C11.2265 59.9935 11.347 60.0437 11.4743 60.0601C11.6015 60.0764 11.7308 60.0583 11.8486 60.0077L14.9234 58.6832C15.2813 58.5518 15.6339 58.8871 15.5202 59.2516L14.3159 62.3031C14.2183 62.5502 14.2648 62.8303 14.4374 63.0317L16.7067 65.6898C16.9417 65.9893 16.7321 66.4289 16.3505 66.4331L12.9796 66.3199C12.8524 66.3154 12.7263 66.345 12.6144 66.4056C12.5024 66.4662 12.4087 66.5556 12.3429 66.6646L10.5943 69.5481C10.3826 69.8639 9.89954 69.8005 9.77724 69.44L8.79217 66.0867C8.717 65.8325 8.50871 65.64 8.24851 65.5865L5.03511 64.929C4.66908 64.8253 4.58068 64.3459 4.88542 64.1184L7.67547 62.268C7.7823 62.197 7.86812 62.0987 7.92399 61.9832C7.97985 61.8677 8.00372 61.7394 7.99309 61.6116L7.71052 58.2145C7.6972 57.8331 8.12467 57.6017 8.43531 57.8209Z" fill="#FDC435"/>
<path d="M9.9233 60.7783L8.62429 58.8658C8.55524 58.7575 8.42742 58.5769 8.60807 58.4791C8.75115 58.4017 8.99017 58.6574 8.99017 58.6574L10.4811 59.9502C11.0463 60.4433 11.0663 60.7066 10.9114 60.9523C10.7331 61.2339 10.2951 61.3264 9.9233 60.7783Z" fill="#FFDB7E"/>
<path d="M13.983 62.251L14.9964 59.932C15.0439 59.8126 15.1379 59.6125 14.9416 59.5488C14.7862 59.4988 14.5987 59.7934 14.5987 59.7934L13.3881 61.2248C13.0159 61.6309 12.8387 62.0298 12.9716 62.3395C13.1497 62.7518 13.6671 62.8638 13.983 62.251Z" fill="#E5AF26"/>
</g>
<g clip-path="url(#clip4_328_14881)">
<path d="M20.1694 46.5187L22.7871 49.8044C22.8856 49.928 23.0155 50.0229 23.1631 50.0793C23.3108 50.1356 23.471 50.1513 23.6268 50.1247L27.693 49.4263C28.1598 49.3724 28.4853 49.8759 28.2438 50.2798L25.9193 53.5875C25.7311 53.8553 25.7058 54.2043 25.8544 54.4955L27.8049 58.3356C27.9999 58.7623 27.6218 59.2283 27.1634 59.1231L23.1578 58.0135C23.0067 57.9714 22.8471 57.9705 22.6955 58.0107C22.5439 58.051 22.4058 58.131 22.2954 58.2425L19.3675 61.1917C19.0225 61.5089 18.4622 61.2933 18.4198 60.8261L18.2086 56.5242C18.192 56.198 17.9981 55.9071 17.7019 55.768L14.0422 54.0517C13.6336 53.8218 13.6662 53.2218 14.097 53.0374L17.9742 51.6268C18.1227 51.5726 18.2539 51.4796 18.3542 51.3574C18.4545 51.2352 18.5202 51.0883 18.5444 50.9321L19.1874 46.7807C19.2817 46.32 19.8606 46.1663 20.1694 46.5187Z" fill="#FDC435"/>
<path d="M21.0977 50.4916L20.094 47.8251C20.0426 47.6754 19.9417 47.4221 20.1863 47.3571C20.3801 47.3057 20.5926 47.6811 20.5926 47.6811L22.0051 49.6607C22.5398 50.4147 22.4877 50.7359 22.2311 50.9855C21.9361 51.2713 21.3848 51.2556 21.0977 50.4916Z" fill="#FFDB7E"/>
<path d="M25.5351 53.4288L27.4193 50.9434C27.5107 50.8141 27.6812 50.6015 27.4643 50.4685C27.2926 50.3637 26.9829 50.6625 26.9829 50.6625L25.119 52.0274C24.5557 52.4064 24.2282 52.8331 24.298 53.2425C24.3922 53.788 24.9797 54.0716 25.5351 53.4288Z" fill="#E5AF26"/>
</g>
<defs>
<linearGradient id="paint0_linear_328_14881" x1="125.715" y1="57.2385" x2="126.064" y2="59.1053" gradientUnits="userSpaceOnUse">
<stop stop-color="#739CD2"/>
<stop offset="0.1396" stop-color="#739CD2"/>
<stop offset="0.2474" stop-color="#7DA3D5"/>
<stop offset="0.4286" stop-color="#97B5DE"/>
<stop offset="0.661" stop-color="#C1D3EB"/>
<stop offset="0.9332" stop-color="#FCFDFE"/>
<stop offset="0.9468" stop-color="white"/>
<stop offset="1" stop-color="white"/>
</linearGradient>
<clipPath id="clip0_328_14881">
<rect width="19.3868" height="19.3868" fill="white" transform="translate(28.6626 38) rotate(7.90514)"/>
</clipPath>
<clipPath id="clip1_328_14881">
<rect width="16.0412" height="16.0412" fill="white" transform="translate(47.8711 44.7838) rotate(17.996)"/>
</clipPath>
<clipPath id="clip2_328_14881">
<rect width="13.0167" height="13.0167" fill="white" transform="translate(62.1553 55.7223) rotate(17.996)"/>
</clipPath>
<clipPath id="clip3_328_14881">
<rect width="13.0167" height="13.0167" fill="white" transform="translate(2 60.4688) rotate(-28.4293)"/>
</clipPath>
<clipPath id="clip4_328_14881">
<rect width="16.0412" height="16.0412" fill="white" transform="translate(11.6948 47.8313) rotate(-14.8693)"/>
</clipPath>
</defs>
</svg>
