<svg width="160" height="160" viewBox="0 0 160 160" fill="none" xmlns="http://www.w3.org/2000/svg">
<path d="M3.34204 80.0494C3.34204 139.061 67.2237 175.943 118.329 146.437C142.047 132.743 156.658 107.437 156.658 80.0494C156.658 21.0383 92.7761 -15.8437 41.671 13.6619C17.953 27.3555 3.34204 52.6622 3.34204 80.0494Z" fill="#174994" stroke="#174994" stroke-width="0.24"/>
<path d="M34.5784 41.4944H106.416V109.106H34.5784V41.4944Z" fill="white"/>
<path d="M82.1082 107.205C82.1082 107.845 82.1273 108.478 82.1637 109.106H102.191C104.521 109.101 106.407 107.211 106.407 104.881V75.1296C92.0463 79.1859 82.1248 92.2831 82.1082 107.205Z" fill="#174994"/>
<path d="M34.5784 41.4944H106.416V109.106H34.5784V41.4944Z" stroke="#45413C" stroke-width="0.24" stroke-linecap="round" stroke-linejoin="round"/>
<path d="M52.5374 48.8897C52.5319 51.3299 49.887 52.8491 47.7765 51.6242C46.8014 51.0584 46.2003 50.0172 46.1978 48.8897V33.0426C46.2031 30.6026 48.8481 29.0834 50.9586 30.3082C51.9337 30.8741 52.5349 31.9153 52.5374 33.0426V48.8897Z" fill="#818BE2"/>
<path d="M49.3675 29.8748C47.6177 29.8748 46.1989 31.2928 46.1978 33.0428V38.3263C46.2031 35.8862 48.8481 34.367 50.9586 35.5919C51.9337 36.1577 52.5349 37.1989 52.5374 38.3263V33.0428C52.5374 31.2923 51.1178 29.8738 49.3675 29.8748Z" fill="white"/>
<path d="M52.5374 48.8897C52.5319 51.3299 49.887 52.8491 47.7765 51.6242C46.8014 51.0584 46.2003 50.0172 46.1978 48.8897V33.0426C46.2031 30.6026 48.8481 29.0834 50.9586 30.3082C51.9337 30.8741 52.5349 31.9153 52.5374 33.0426V48.8897Z" stroke="#45413C" stroke-width="0.24" stroke-linecap="round" stroke-linejoin="round"/>
<path d="M73.6758 48.8897C73.6704 51.3299 71.0255 52.8491 68.915 51.6242C67.9398 51.0584 67.3387 50.0172 67.3362 48.8897V33.0426C67.3417 30.6026 69.9865 29.0834 72.0971 30.3082C73.0722 30.8741 73.6733 31.9153 73.6758 33.0426V48.8897Z" fill="#818BE2"/>
<path d="M70.4964 29.8748C68.7466 29.8748 67.3278 31.2928 67.3267 33.0428V38.3263C67.332 35.8862 69.977 34.367 72.0875 35.5919C73.0625 36.1577 73.6638 37.1989 73.6663 38.3263V33.0428C73.6663 31.2923 72.2467 29.8738 70.4964 29.8748Z" fill="white"/>
<path d="M73.6758 48.8897C73.6704 51.3299 71.0255 52.8491 68.915 51.6242C67.9398 51.0584 67.3387 50.0172 67.3362 48.8897V33.0426C67.3417 30.6026 69.9865 29.0834 72.0971 30.3082C73.0722 30.8741 73.6733 31.9153 73.6758 33.0426V48.8897Z" stroke="#45413C" stroke-width="0.24" stroke-linecap="round" stroke-linejoin="round"/>
<path d="M94.7948 48.8897C94.8004 51.3299 92.1622 52.8608 90.0463 51.6456C89.0599 51.079 88.4528 50.0272 88.4553 48.8897V33.0426C88.4607 30.6026 91.1057 29.0834 93.216 30.3082C94.1912 30.8741 94.7924 31.9153 94.7948 33.0426V48.8897Z" fill="#818BE2"/>
<path d="M91.6251 29.8748C89.8752 29.8748 88.4563 31.2928 88.4553 33.0428V38.3263C88.4498 35.8862 91.0879 34.3553 93.2038 35.5705C94.1902 36.1371 94.7974 37.1887 94.7948 38.3263V33.0428C94.7948 31.2923 93.3754 29.8738 91.6251 29.8748Z" fill="white"/>
<path d="M94.7948 48.8897C94.8004 51.3299 92.1622 52.8608 90.0463 51.6456C89.0599 51.079 88.4528 50.0272 88.4553 48.8897V33.0426C88.4607 30.6026 91.1057 29.0834 93.216 30.3082C94.1912 30.8741 94.7924 31.9153 94.7948 33.0426V48.8897Z" stroke="#45413C" stroke-width="0.24" stroke-linecap="round" stroke-linejoin="round"/>
<path opacity="0.15" d="M36.0137 126.086C36.0137 129.339 65.0653 131.372 88.3067 129.746C99.0931 128.991 105.738 127.596 105.738 126.086C105.738 122.833 76.686 120.8 53.4446 122.426C42.6584 123.181 36.0137 124.576 36.0137 126.086Z" fill="#45413C"/>
<path d="M110.751 135.913C132.848 139.517 150.56 117.849 142.633 96.9103C138.948 87.1769 130.343 80.1545 120.068 78.4958C97.9716 74.8919 80.2597 96.5599 88.1869 117.498C91.872 127.232 100.477 134.254 110.751 135.913Z" fill="#FF6242"/>
<path d="M115.412 85.7757C129.996 85.7763 142.325 96.5758 144.247 111.033C147.182 88.8355 124.988 71.7845 104.297 80.3408C92.1201 85.3763 84.8496 97.9691 86.5772 111.033C88.4988 96.5758 100.828 85.7763 115.412 85.7757Z" fill="#FF6242"/>
<path d="M110.752 135.913C132.848 139.517 150.56 117.849 142.633 96.9103C138.948 87.1769 130.343 80.1545 120.068 78.4958C97.9716 74.8919 80.2597 96.5599 88.1869 117.498C91.872 127.232 100.477 134.254 110.752 135.913Z" stroke="#45413C" stroke-width="0.24" stroke-linecap="round" stroke-linejoin="round"/>
<path d="M111.977 128.359C128.262 131.005 141.304 115.031 135.453 99.6048C132.737 92.4427 126.404 87.2749 118.843 86.0495C102.558 83.4035 89.516 99.3783 95.3668 114.804C98.0832 121.966 104.416 127.134 111.977 128.359Z" fill="white"/>
<path d="M136.344 111.826C139.887 95.7128 124.659 81.8062 108.933 86.7938C98.3669 90.1449 92.0998 101 94.4806 111.826C97.9898 95.7128 117.626 89.4408 129.825 100.536C133.118 103.531 135.396 107.477 136.344 111.826Z" fill="#F8F8F8"/>
<path d="M115.412 98.0217L115.468 107.15H119.751" stroke="#45413C" stroke-width="0.24" stroke-linecap="round" stroke-linejoin="round"/>
<path d="M115.412 123.6V120.868" stroke="#45413C" stroke-width="0.24" stroke-linecap="round" stroke-linejoin="round"/>
<path d="M115.412 90.8103V93.543" stroke="#45413C" stroke-width="0.24" stroke-linecap="round" stroke-linejoin="round"/>
<path d="M127.005 95.6128L125.073 97.5446" stroke="#45413C" stroke-width="0.24" stroke-linecap="round" stroke-linejoin="round"/>
<path d="M131.807 107.205H129.074" stroke="#45413C" stroke-width="0.24" stroke-linecap="round" stroke-linejoin="round"/>
<path d="M127.005 118.798L125.073 116.866" stroke="#45413C" stroke-width="0.24" stroke-linecap="round" stroke-linejoin="round"/>
<path d="M103.82 118.798L105.751 116.866" stroke="#45413C" stroke-width="0.24" stroke-linecap="round" stroke-linejoin="round"/>
<path d="M99.0168 107.205H101.75" stroke="#45413C" stroke-width="0.24" stroke-linecap="round" stroke-linejoin="round"/>
<path d="M103.82 95.6128L105.751 97.5446" stroke="#45413C" stroke-width="0.24" stroke-linecap="round" stroke-linejoin="round"/>
<path d="M111.977 128.359C128.262 131.005 141.304 115.031 135.453 99.6048C132.737 92.4427 126.404 87.2749 118.843 86.0495C102.558 83.4035 89.516 99.3783 95.3668 114.804C98.0832 121.966 104.416 127.134 111.977 128.359Z" stroke="#45413C" stroke-width="0.24" stroke-linecap="round" stroke-linejoin="round"/>
<circle cx="70.0395" cy="74.9999" r="15.3333" fill="#B42318" stroke="#B42318" stroke-width="2.66667"/>
<path fill-rule="evenodd" clip-rule="evenodd" d="M64.7405 67.5654C64.1547 66.9796 63.205 66.9795 62.6191 67.5652C62.0333 68.1509 62.0332 69.1007 62.6189 69.6865L67.9168 74.9855L62.6259 80.2764C62.0402 80.8622 62.0402 81.8119 62.6259 82.3977C63.2117 82.9835 64.1615 82.9835 64.7473 82.3977L70.0379 77.1071L75.3349 82.4052C75.9206 82.991 76.8704 82.9911 77.4562 82.4054C78.0421 81.8197 78.0422 80.8699 77.4565 80.2841L72.1592 74.9858L77.4527 69.6923C78.0384 69.1065 78.0384 68.1568 77.4527 67.571C76.8669 66.9852 75.9171 66.9852 75.3313 67.571L70.0381 72.8642L64.7405 67.5654Z" fill="white"/>
</svg>
